<?xml version="1.0" encoding="utf-8"?>
<svg xmlns="http://www.w3.org/2000/svg" viewBox="0 0 100 100">

  <!-- Crest plume -->
  <ellipse cx="50" cy="7" rx="15" ry="6" fill="#0077EE"/>
  <ellipse cx="50" cy="9" rx="10" ry="4" fill="#0066CC"/>
  <rect x="47" y="7" width="6" height="13" rx="2" fill="#0055BB"/>

  <!-- Main dome -->
  <path d="M17 56 C17 29 31 16 50 16 C69 16 83 29 83 56 Z" fill="#0066CC"/>

  <!-- Dome sheen highlight -->
  <path d="M27 37 C27 24 35 18 50 18" fill="none" stroke="#55AAFF" stroke-width="1.5" stroke-linecap="round" opacity="0.35"/>

  <!-- Wide brim -->
  <path d="M9 56 L91 56 L87 65 L13 65 Z" fill="#004EAA"/>

  <!-- Face opening (dark area) -->
  <path d="M32 20 C32 20 39 16 50 16 C61 16 68 20 68 20 L68 56 L32 56 Z" fill="#0D2137"/>

  <!-- Visor horizontal bars -->
  <rect x="32" y="28" width="36" height="4" rx="2" fill="#0A2850"/>
  <rect x="32" y="36" width="36" height="4" rx="2" fill="#0A2850"/>
  <rect x="32" y="44" width="36" height="4" rx="2" fill="#0A2850"/>

  <!-- Centre nose / brow ridge -->
  <rect x="47" y="16" width="6" height="40" rx="2" fill="#0055BB"/>

  <!-- Left cheek guard -->
  <path d="M17 56 L13 65 L10 80 C9 88 16 92 22 90 L27 73 L32 56 Z" fill="#0055BB"/>

  <!-- Right cheek guard -->
  <path d="M83 56 L87 65 L90 80 C91 88 84 92 78 90 L73 73 L68 56 Z" fill="#0055BB"/>

  <!-- Chin connecting bar -->
  <path d="M22 90 C22 90 35 98 50 98 C65 98 78 90 78 90"
        fill="none" stroke="#004EAA" stroke-width="4" stroke-linecap="round"/>

</svg>
